<?xml version="1.0" standalone="yes"?><svg version="1.1" xmlns="http://www.w3.org/2000/svg" xmlns:xlink="http://www.w3.org/1999/xlink" xmlns:ev="http://www.w3.org/2001/xml-events" width="174" height="174" shape-rendering="crispEdges"><rect width="6" height="6" x="0" y="0" fill="#000"/><rect width="6" height="6" x="6" y="0" fill="#000"/><rect width="6" height="6" x="12" y="0" fill="#000"/><rect width="6" height="6" x="18" y="0" fill="#000"/><rect width="6" height="6" x="24" y="0" fill="#000"/><rect width="6" height="6" x="30" y="0" fill="#000"/><rect width="6" height="6" x="36" y="0" fill="#000"/><rect width="6" height="6" x="48" y="0" fill="#000"/><rect width="6" height="6" x="54" y="0" fill="#000"/><rect width="6" height="6" x="78" y="0" fill="#000"/><rect width="6" height="6" x="90" y="0" fill="#000"/><rect width="6" height="6" x="96" y="0" fill="#000"/><rect width="6" height="6" x="120" y="0" fill="#000"/><rect width="6" height="6" x="132" y="0" fill="#000"/><rect width="6" height="6" x="138" y="0" fill="#000"/><rect width="6" height="6" x="144" y="0" fill="#000"/><rect width="6" height="6" x="150" y="0" fill="#000"/><rect width="6" height="6" x="156" y="0" fill="#000"/><rect width="6" height="6" x="162" y="0" fill="#000"/><rect width="6" height="6" x="168" y="0" fill="#000"/><rect width="6" height="6" x="0" y="6" fill="#000"/><rect width="6" height="6" x="36" y="6" fill="#000"/><rect width="6" height="6" x="48" y="6" fill="#000"/><rect width="6" height="6" x="84" y="6" fill="#000"/><rect width="6" height="6" x="108" y="6" fill="#000"/><rect width="6" height="6" x="120" y="6" fill="#000"/><rect width="6" height="6" x="132" y="6" fill="#000"/><rect width="6" height="6" x="168" y="6" fill="#000"/><rect width="6" height="6" x="0" y="12" fill="#000"/><rect width="6" height="6" x="12" y="12" fill="#000"/><rect width="6" height="6" x="18" y="12" fill="#000"/><rect width="6" height="6" x="24" y="12" fill="#000"/><rect width="6" height="6" x="36" y="12" fill="#000"/><rect width="6" height="6" x="54" y="12" fill="#000"/><rect width="6" height="6" x="72" y="12" fill="#000"/><rect width="6" height="6" x="84" y="12" fill="#000"/><rect width="6" height="6" x="90" y="12" fill="#000"/><rect width="6" height="6" x="102" y="12" fill="#000"/><rect width="6" height="6" x="132" y="12" fill="#000"/><rect width="6" height="6" x="144" y="12" fill="#000"/><rect width="6" height="6" x="150" y="12" fill="#000"/><rect width="6" height="6" x="156" y="12" fill="#000"/><rect width="6" height="6" x="168" y="12" fill="#000"/><rect width="6" height="6" x="0" y="18" fill="#000"/><rect width="6" height="6" x="12" y="18" fill="#000"/><rect width="6" height="6" x="18" y="18" fill="#000"/><rect width="6" height="6" x="24" y="18" fill="#000"/><rect width="6" height="6" x="36" y="18" fill="#000"/><rect width="6" height="6" x="48" y="18" fill="#000"/><rect width="6" height="6" x="54" y="18" fill="#000"/><rect width="6" height="6" x="84" y="18" fill="#000"/><rect width="6" height="6" x="96" y="18" fill="#000"/><rect width="6" height="6" x="102" y="18" fill="#000"/><rect width="6" height="6" x="108" y="18" fill="#000"/><rect width="6" height="6" x="114" y="18" fill="#000"/><rect width="6" height="6" x="120" y="18" fill="#000"/><rect width="6" height="6" x="132" y="18" fill="#000"/><rect width="6" height="6" x="144" y="18" fill="#000"/><rect width="6" height="6" x="150" y="18" fill="#000"/><rect width="6" height="6" x="156" y="18" fill="#000"/><rect width="6" height="6" x="168" y="18" fill="#000"/><rect width="6" height="6" x="0" y="24" fill="#000"/><rect width="6" height="6" x="12" y="24" fill="#000"/><rect width="6" height="6" x="18" y="24" fill="#000"/><rect width="6" height="6" x="24" y="24" fill="#000"/><rect width="6" height="6" x="36" y="24" fill="#000"/><rect width="6" height="6" x="48" y="24" fill="#000"/><rect width="6" height="6" x="60" y="24" fill="#000"/><rect width="6" height="6" x="66" y="24" fill="#000"/><rect width="6" height="6" x="72" y="24" fill="#000"/><rect width="6" height="6" x="78" y="24" fill="#000"/><rect width="6" height="6" x="90" y="24" fill="#000"/><rect width="6" height="6" x="102" y="24" fill="#000"/><rect width="6" height="6" x="108" y="24" fill="#000"/><rect width="6" height="6" x="120" y="24" fill="#000"/><rect width="6" height="6" x="132" y="24" fill="#000"/><rect width="6" height="6" x="144" y="24" fill="#000"/><rect width="6" height="6" x="150" y="24" fill="#000"/><rect width="6" height="6" x="156" y="24" fill="#000"/><rect width="6" height="6" x="168" y="24" fill="#000"/><rect width="6" height="6" x="0" y="30" fill="#000"/><rect width="6" height="6" x="36" y="30" fill="#000"/><rect width="6" height="6" x="48" y="30" fill="#000"/><rect width="6" height="6" x="60" y="30" fill="#000"/><rect width="6" height="6" x="66" y="30" fill="#000"/><rect width="6" height="6" x="72" y="30" fill="#000"/><rect width="6" height="6" x="78" y="30" fill="#000"/><rect width="6" height="6" x="84" y="30" fill="#000"/><rect width="6" height="6" x="102" y="30" fill="#000"/><rect width="6" height="6" x="108" y="30" fill="#000"/><rect width="6" height="6" x="114" y="30" fill="#000"/><rect width="6" height="6" x="120" y="30" fill="#000"/><rect width="6" height="6" x="132" y="30" fill="#000"/><rect width="6" height="6" x="168" y="30" fill="#000"/><rect width="6" height="6" x="0" y="36" fill="#000"/><rect width="6" height="6" x="6" y="36" fill="#000"/><rect width="6" height="6" x="12" y="36" fill="#000"/><rect width="6" height="6" x="18" y="36" fill="#000"/><rect width="6" height="6" x="24" y="36" fill="#000"/><rect width="6" height="6" x="30" y="36" fill="#000"/><rect width="6" height="6" x="36" y="36" fill="#000"/><rect width="6" height="6" x="48" y="36" fill="#000"/><rect width="6" height="6" x="60" y="36" fill="#000"/><rect width="6" height="6" x="72" y="36" fill="#000"/><rect width="6" height="6" x="84" y="36" fill="#000"/><rect width="6" height="6" x="96" y="36" fill="#000"/><rect width="6" height="6" x="108" y="36" fill="#000"/><rect width="6" height="6" x="120" y="36" fill="#000"/><rect width="6" height="6" x="132" y="36" fill="#000"/><rect width="6" height="6" x="138" y="36" fill="#000"/><rect width="6" height="6" x="144" y="36" fill="#000"/><rect width="6" height="6" x="150" y="36" fill="#000"/><rect width="6" height="6" x="156" y="36" fill="#000"/><rect width="6" height="6" x="162" y="36" fill="#000"/><rect width="6" height="6" x="168" y="36" fill="#000"/><rect width="6" height="6" x="54" y="42" fill="#000"/><rect width="6" height="6" x="60" y="42" fill="#000"/><rect width="6" height="6" x="78" y="42" fill="#000"/><rect width="6" height="6" x="18" y="48" fill="#000"/><rect width="6" height="6" x="36" y="48" fill="#000"/><rect width="6" height="6" x="60" y="48" fill="#000"/><rect width="6" height="6" x="66" y="48" fill="#000"/><rect width="6" height="6" x="72" y="48" fill="#000"/><rect width="6" height="6" x="90" y="48" fill="#000"/><rect width="6" height="6" x="102" y="48" fill="#000"/><rect width="6" height="6" x="114" y="48" fill="#000"/><rect width="6" height="6" x="138" y="48" fill="#000"/><rect width="6" height="6" x="144" y="48" fill="#000"/><rect width="6" height="6" x="150" y="48" fill="#000"/><rect width="6" height="6" x="162" y="48" fill="#000"/><rect width="6" height="6" x="168" y="48" fill="#000"/><rect width="6" height="6" x="6" y="54" fill="#000"/><rect width="6" height="6" x="12" y="54" fill="#000"/><rect width="6" height="6" x="48" y="54" fill="#000"/><rect width="6" height="6" x="60" y="54" fill="#000"/><rect width="6" height="6" x="72" y="54" fill="#000"/><rect width="6" height="6" x="78" y="54" fill="#000"/><rect width="6" height="6" x="84" y="54" fill="#000"/><rect width="6" height="6" x="114" y="54" fill="#000"/><rect width="6" height="6" x="120" y="54" fill="#000"/><rect width="6" height="6" x="126" y="54" fill="#000"/><rect width="6" height="6" x="144" y="54" fill="#000"/><rect width="6" height="6" x="150" y="54" fill="#000"/><rect width="6" height="6" x="168" y="54" fill="#000"/><rect width="6" height="6" x="12" y="60" fill="#000"/><rect width="6" height="6" x="24" y="60" fill="#000"/><rect width="6" height="6" x="36" y="60" fill="#000"/><rect width="6" height="6" x="66" y="60" fill="#000"/><rect width="6" height="6" x="78" y="60" fill="#000"/><rect width="6" height="6" x="90" y="60" fill="#000"/><rect width="6" height="6" x="102" y="60" fill="#000"/><rect width="6" height="6" x="108" y="60" fill="#000"/><rect width="6" height="6" x="120" y="60" fill="#000"/><rect width="6" height="6" x="126" y="60" fill="#000"/><rect width="6" height="6" x="150" y="60" fill="#000"/><rect width="6" height="6" x="0" y="66" fill="#000"/><rect width="6" height="6" x="12" y="66" fill="#000"/><rect width="6" height="6" x="18" y="66" fill="#000"/><rect width="6" height="6" x="30" y="66" fill="#000"/><rect width="6" height="6" x="42" y="66" fill="#000"/><rect width="6" height="6" x="48" y="66" fill="#000"/><rect width="6" height="6" x="66" y="66" fill="#000"/><rect width="6" height="6" x="84" y="66" fill="#000"/><rect width="6" height="6" x="102" y="66" fill="#000"/><rect width="6" height="6" x="108" y="66" fill="#000"/><rect width="6" height="6" x="132" y="66" fill="#000"/><rect width="6" height="6" x="138" y="66" fill="#000"/><rect width="6" height="6" x="144" y="66" fill="#000"/><rect width="6" height="6" x="156" y="66" fill="#000"/><rect width="6" height="6" x="0" y="72" fill="#000"/><rect width="6" height="6" x="6" y="72" fill="#000"/><rect width="6" height="6" x="12" y="72" fill="#000"/><rect width="6" height="6" x="36" y="72" fill="#000"/><rect width="6" height="6" x="60" y="72" fill="#000"/><rect width="6" height="6" x="96" y="72" fill="#000"/><rect width="6" height="6" x="102" y="72" fill="#000"/><rect width="6" height="6" x="114" y="72" fill="#000"/><rect width="6" height="6" x="132" y="72" fill="#000"/><rect width="6" height="6" x="138" y="72" fill="#000"/><rect width="6" height="6" x="12" y="78" fill="#000"/><rect width="6" height="6" x="48" y="78" fill="#000"/><rect width="6" height="6" x="60" y="78" fill="#000"/><rect width="6" height="6" x="72" y="78" fill="#000"/><rect width="6" height="6" x="84" y="78" fill="#000"/><rect width="6" height="6" x="90" y="78" fill="#000"/><rect width="6" height="6" x="96" y="78" fill="#000"/><rect width="6" height="6" x="114" y="78" fill="#000"/><rect width="6" height="6" x="138" y="78" fill="#000"/><rect width="6" height="6" x="150" y="78" fill="#000"/><rect width="6" height="6" x="162" y="78" fill="#000"/><rect width="6" height="6" x="12" y="84" fill="#000"/><rect width="6" height="6" x="18" y="84" fill="#000"/><rect width="6" height="6" x="24" y="84" fill="#000"/><rect width="6" height="6" x="30" y="84" fill="#000"/><rect width="6" height="6" x="36" y="84" fill="#000"/><rect width="6" height="6" x="42" y="84" fill="#000"/><rect width="6" height="6" x="54" y="84" fill="#000"/><rect width="6" height="6" x="60" y="84" fill="#000"/><rect width="6" height="6" x="78" y="84" fill="#000"/><rect width="6" height="6" x="108" y="84" fill="#000"/><rect width="6" height="6" x="120" y="84" fill="#000"/><rect width="6" height="6" x="132" y="84" fill="#000"/><rect width="6" height="6" x="150" y="84" fill="#000"/><rect width="6" height="6" x="156" y="84" fill="#000"/><rect width="6" height="6" x="162" y="84" fill="#000"/><rect width="6" height="6" x="168" y="84" fill="#000"/><rect width="6" height="6" x="0" y="90" fill="#000"/><rect width="6" height="6" x="6" y="90" fill="#000"/><rect width="6" height="6" x="12" y="90" fill="#000"/><rect width="6" height="6" x="30" y="90" fill="#000"/><rect width="6" height="6" x="48" y="90" fill="#000"/><rect width="6" height="6" x="60" y="90" fill="#000"/><rect width="6" height="6" x="90" y="90" fill="#000"/><rect width="6" height="6" x="96" y="90" fill="#000"/><rect width="6" height="6" x="108" y="90" fill="#000"/><rect width="6" height="6" x="138" y="90" fill="#000"/><rect width="6" height="6" x="150" y="90" fill="#000"/><rect width="6" height="6" x="6" y="96" fill="#000"/><rect width="6" height="6" x="30" y="96" fill="#000"/><rect width="6" height="6" x="36" y="96" fill="#000"/><rect width="6" height="6" x="42" y="96" fill="#000"/><rect width="6" height="6" x="54" y="96" fill="#000"/><rect width="6" height="6" x="60" y="96" fill="#000"/><rect width="6" height="6" x="72" y="96" fill="#000"/><rect width="6" height="6" x="78" y="96" fill="#000"/><rect width="6" height="6" x="90" y="96" fill="#000"/><rect width="6" height="6" x="108" y="96" fill="#000"/><rect width="6" height="6" x="114" y="96" fill="#000"/><rect width="6" height="6" x="138" y="96" fill="#000"/><rect width="6" height="6" x="144" y="96" fill="#000"/><rect width="6" height="6" x="168" y="96" fill="#000"/><rect width="6" height="6" x="6" y="102" fill="#000"/><rect width="6" height="6" x="18" y="102" fill="#000"/><rect width="6" height="6" x="24" y="102" fill="#000"/><rect width="6" height="6" x="48" y="102" fill="#000"/><rect width="6" height="6" x="54" y="102" fill="#000"/><rect width="6" height="6" x="60" y="102" fill="#000"/><rect width="6" height="6" x="66" y="102" fill="#000"/><rect width="6" height="6" x="72" y="102" fill="#000"/><rect width="6" height="6" x="78" y="102" fill="#000"/><rect width="6" height="6" x="102" y="102" fill="#000"/><rect width="6" height="6" x="114" y="102" fill="#000"/><rect width="6" height="6" x="120" y="102" fill="#000"/><rect width="6" height="6" x="168" y="102" fill="#000"/><rect width="6" height="6" x="0" y="108" fill="#000"/><rect width="6" height="6" x="12" y="108" fill="#000"/><rect width="6" height="6" x="18" y="108" fill="#000"/><rect width="6" height="6" x="24" y="108" fill="#000"/><rect width="6" height="6" x="36" y="108" fill="#000"/><rect width="6" height="6" x="54" y="108" fill="#000"/><rect width="6" height="6" x="60" y="108" fill="#000"/><rect width="6" height="6" x="66" y="108" fill="#000"/><rect width="6" height="6" x="72" y="108" fill="#000"/><rect width="6" height="6" x="84" y="108" fill="#000"/><rect width="6" height="6" x="96" y="108" fill="#000"/><rect width="6" height="6" x="102" y="108" fill="#000"/><rect width="6" height="6" x="132" y="108" fill="#000"/><rect width="6" height="6" x="138" y="108" fill="#000"/><rect width="6" height="6" x="144" y="108" fill="#000"/><rect width="6" height="6" x="156" y="108" fill="#000"/><rect width="6" height="6" x="168" y="108" fill="#000"/><rect width="6" height="6" x="12" y="114" fill="#000"/><rect width="6" height="6" x="18" y="114" fill="#000"/><rect width="6" height="6" x="24" y="114" fill="#000"/><rect width="6" height="6" x="30" y="114" fill="#000"/><rect width="6" height="6" x="54" y="114" fill="#000"/><rect width="6" height="6" x="66" y="114" fill="#000"/><rect width="6" height="6" x="90" y="114" fill="#000"/><rect width="6" height="6" x="96" y="114" fill="#000"/><rect width="6" height="6" x="102" y="114" fill="#000"/><rect width="6" height="6" x="138" y="114" fill="#000"/><rect width="6" height="6" x="0" y="120" fill="#000"/><rect width="6" height="6" x="12" y="120" fill="#000"/><rect width="6" height="6" x="24" y="120" fill="#000"/><rect width="6" height="6" x="30" y="120" fill="#000"/><rect width="6" height="6" x="36" y="120" fill="#000"/><rect width="6" height="6" x="54" y="120" fill="#000"/><rect width="6" height="6" x="60" y="120" fill="#000"/><rect width="6" height="6" x="78" y="120" fill="#000"/><rect width="6" height="6" x="96" y="120" fill="#000"/><rect width="6" height="6" x="108" y="120" fill="#000"/><rect width="6" height="6" x="120" y="120" fill="#000"/><rect width="6" height="6" x="126" y="120" fill="#000"/><rect width="6" height="6" x="132" y="120" fill="#000"/><rect width="6" height="6" x="138" y="120" fill="#000"/><rect width="6" height="6" x="144" y="120" fill="#000"/><rect width="6" height="6" x="162" y="120" fill="#000"/><rect width="6" height="6" x="48" y="126" fill="#000"/><rect width="6" height="6" x="60" y="126" fill="#000"/><rect width="6" height="6" x="66" y="126" fill="#000"/><rect width="6" height="6" x="78" y="126" fill="#000"/><rect width="6" height="6" x="90" y="126" fill="#000"/><rect width="6" height="6" x="102" y="126" fill="#000"/><rect width="6" height="6" x="108" y="126" fill="#000"/><rect width="6" height="6" x="120" y="126" fill="#000"/><rect width="6" height="6" x="144" y="126" fill="#000"/><rect width="6" height="6" x="150" y="126" fill="#000"/><rect width="6" height="6" x="168" y="126" fill="#000"/><rect width="6" height="6" x="0" y="132" fill="#000"/><rect width="6" height="6" x="6" y="132" fill="#000"/><rect width="6" height="6" x="12" y="132" fill="#000"/><rect width="6" height="6" x="18" y="132" fill="#000"/><rect width="6" height="6" x="24" y="132" fill="#000"/><rect width="6" height="6" x="30" y="132" fill="#000"/><rect width="6" height="6" x="36" y="132" fill="#000"/><rect width="6" height="6" x="60" y="132" fill="#000"/><rect width="6" height="6" x="66" y="132" fill="#000"/><rect width="6" height="6" x="96" y="132" fill="#000"/><rect width="6" height="6" x="108" y="132" fill="#000"/><rect width="6" height="6" x="120" y="132" fill="#000"/><rect width="6" height="6" x="132" y="132" fill="#000"/><rect width="6" height="6" x="144" y="132" fill="#000"/><rect width="6" height="6" x="162" y="132" fill="#000"/><rect width="6" height="6" x="0" y="138" fill="#000"/><rect width="6" height="6" x="36" y="138" fill="#000"/><rect width="6" height="6" x="54" y="138" fill="#000"/><rect width="6" height="6" x="66" y="138" fill="#000"/><rect width="6" height="6" x="78" y="138" fill="#000"/><rect width="6" height="6" x="84" y="138" fill="#000"/><rect width="6" height="6" x="96" y="138" fill="#000"/><rect width="6" height="6" x="108" y="138" fill="#000"/><rect width="6" height="6" x="114" y="138" fill="#000"/><rect width="6" height="6" x="120" y="138" fill="#000"/><rect width="6" height="6" x="144" y="138" fill="#000"/><rect width="6" height="6" x="150" y="138" fill="#000"/><rect width="6" height="6" x="156" y="138" fill="#000"/><rect width="6" height="6" x="162" y="138" fill="#000"/><rect width="6" height="6" x="0" y="144" fill="#000"/><rect width="6" height="6" x="12" y="144" fill="#000"/><rect width="6" height="6" x="18" y="144" fill="#000"/><rect width="6" height="6" x="24" y="144" fill="#000"/><rect width="6" height="6" x="36" y="144" fill="#000"/><rect width="6" height="6" x="54" y="144" fill="#000"/><rect width="6" height="6" x="66" y="144" fill="#000"/><rect width="6" height="6" x="78" y="144" fill="#000"/><rect width="6" height="6" x="120" y="144" fill="#000"/><rect width="6" height="6" x="126" y="144" fill="#000"/><rect width="6" height="6" x="132" y="144" fill="#000"/><rect width="6" height="6" x="138" y="144" fill="#000"/><rect width="6" height="6" x="144" y="144" fill="#000"/><rect width="6" height="6" x="150" y="144" fill="#000"/><rect width="6" height="6" x="168" y="144" fill="#000"/><rect width="6" height="6" x="0" y="150" fill="#000"/><rect width="6" height="6" x="12" y="150" fill="#000"/><rect width="6" height="6" x="18" y="150" fill="#000"/><rect width="6" height="6" x="24" y="150" fill="#000"/><rect width="6" height="6" x="36" y="150" fill="#000"/><rect width="6" height="6" x="48" y="150" fill="#000"/><rect width="6" height="6" x="60" y="150" fill="#000"/><rect width="6" height="6" x="72" y="150" fill="#000"/><rect width="6" height="6" x="78" y="150" fill="#000"/><rect width="6" height="6" x="84" y="150" fill="#000"/><rect width="6" height="6" x="96" y="150" fill="#000"/><rect width="6" height="6" x="108" y="150" fill="#000"/><rect width="6" height="6" x="114" y="150" fill="#000"/><rect width="6" height="6" x="120" y="150" fill="#000"/><rect width="6" height="6" x="126" y="150" fill="#000"/><rect width="6" height="6" x="132" y="150" fill="#000"/><rect width="6" height="6" x="144" y="150" fill="#000"/><rect width="6" height="6" x="150" y="150" fill="#000"/><rect width="6" height="6" x="156" y="150" fill="#000"/><rect width="6" height="6" x="162" y="150" fill="#000"/><rect width="6" height="6" x="168" y="150" fill="#000"/><rect width="6" height="6" x="0" y="156" fill="#000"/><rect width="6" height="6" x="12" y="156" fill="#000"/><rect width="6" height="6" x="18" y="156" fill="#000"/><rect width="6" height="6" x="24" y="156" fill="#000"/><rect width="6" height="6" x="36" y="156" fill="#000"/><rect width="6" height="6" x="66" y="156" fill="#000"/><rect width="6" height="6" x="84" y="156" fill="#000"/><rect width="6" height="6" x="96" y="156" fill="#000"/><rect width="6" height="6" x="114" y="156" fill="#000"/><rect width="6" height="6" x="126" y="156" fill="#000"/><rect width="6" height="6" x="138" y="156" fill="#000"/><rect width="6" height="6" x="144" y="156" fill="#000"/><rect width="6" height="6" x="156" y="156" fill="#000"/><rect width="6" height="6" x="168" y="156" fill="#000"/><rect width="6" height="6" x="0" y="162" fill="#000"/><rect width="6" height="6" x="36" y="162" fill="#000"/><rect width="6" height="6" x="60" y="162" fill="#000"/><rect width="6" height="6" x="72" y="162" fill="#000"/><rect width="6" height="6" x="84" y="162" fill="#000"/><rect width="6" height="6" x="90" y="162" fill="#000"/><rect width="6" height="6" x="96" y="162" fill="#000"/><rect width="6" height="6" x="108" y="162" fill="#000"/><rect width="6" height="6" x="114" y="162" fill="#000"/><rect width="6" height="6" x="132" y="162" fill="#000"/><rect width="6" height="6" x="144" y="162" fill="#000"/><rect width="6" height="6" x="156" y="162" fill="#000"/><rect width="6" height="6" x="162" y="162" fill="#000"/><rect width="6" height="6" x="0" y="168" fill="#000"/><rect width="6" height="6" x="6" y="168" fill="#000"/><rect width="6" height="6" x="12" y="168" fill="#000"/><rect width="6" height="6" x="18" y="168" fill="#000"/><rect width="6" height="6" x="24" y="168" fill="#000"/><rect width="6" height="6" x="30" y="168" fill="#000"/><rect width="6" height="6" x="36" y="168" fill="#000"/><rect width="6" height="6" x="54" y="168" fill="#000"/><rect width="6" height="6" x="60" y="168" fill="#000"/><rect width="6" height="6" x="90" y="168" fill="#000"/><rect width="6" height="6" x="102" y="168" fill="#000"/><rect width="6" height="6" x="108" y="168" fill="#000"/><rect width="6" height="6" x="132" y="168" fill="#000"/><rect width="6" height="6" x="138" y="168" fill="#000"/><rect width="6" height="6" x="144" y="168" fill="#000"/><rect width="6" height="6" x="150" y="168" fill="#000"/><rect width="6" height="6" x="156" y="168" fill="#000"/><rect width="6" height="6" x="162" y="168" fill="#000"/></svg>